<?xml version="1.0" encoding="UTF-8" standalone="no"?>
<!-- Created with Inkscape (http://www.inkscape.org/) -->

<svg
   xmlns:dc="http://purl.org/dc/elements/1.1/"
   xmlns:cc="http://creativecommons.org/ns#"
   xmlns:rdf="http://www.w3.org/1999/02/22-rdf-syntax-ns#"
   xmlns:svg="http://www.w3.org/2000/svg"
   xmlns="http://www.w3.org/2000/svg"
   xmlns:sodipodi="http://sodipodi.sourceforge.net/DTD/sodipodi-0.dtd"
   xmlns:inkscape="http://www.inkscape.org/namespaces/inkscape"
   width="64"
   height="64"
   id="svg2"
   version="1.1"
   inkscape:version="0.48.4 r9939"
   sodipodi:docname="New document 1">
  <defs
     id="defs4" />
  <sodipodi:namedview
     id="base"
     pagecolor="#ffffff"
     bordercolor="#666666"
     borderopacity="1.0"
     inkscape:pageopacity="0.0"
     inkscape:pageshadow="2"
     inkscape:zoom="5.38"
     inkscape:cx="41.428571"
     inkscape:cy="24.285714"
     inkscape:document-units="px"
     inkscape:current-layer="layer1"
     showgrid="false"
     inkscape:window-width="1280"
     inkscape:window-height="751"
     inkscape:window-x="0"
     inkscape:window-y="25"
     inkscape:window-maximized="1" />
  <metadata
     id="metadata7">
    <rdf:RDF>
      <cc:Work
         rdf:about="">
        <dc:format>image/svg+xml</dc:format>
        <dc:type
           rdf:resource="http://purl.org/dc/dcmitype/StillImage" />
        <dc:title></dc:title>
      </cc:Work>
    </rdf:RDF>
  </metadata>
  <g
     inkscape:label="Layer 1"
     inkscape:groupmode="layer"
     id="layer1"
     transform="translate(0,-988.3622)">
    <path
       style="fill:none;stroke:#000000;stroke-width:1px;stroke-linecap:butt;stroke-linejoin:miter;stroke-opacity:1"
       d="m 17.472119,49.315985 c 0.619579,0 1.239157,0 1.858736,0 0.123916,0 0.247831,0 0.371747,0 0.06196,0 0.130457,-0.02771 0.185874,0 0.939998,0.626666 0.153305,0.172846 1.115241,0.557621 0.128633,0.05145 0.234598,0.166281 0.371748,0.185874 0.306675,0.04381 0.619578,0 0.929368,0 0.743494,0 1.486989,0 2.230483,0 0.557621,0 1.120133,-0.0737 1.672862,0 0.388419,0.05179 0.729707,0.301649 1.115242,0.371747 0.304792,0.05542 0.620491,-0.02376 0.929368,0 0.498049,0.03831 0.989194,0.14439 1.486989,0.185873 0.493951,0.04116 0.991326,0 1.486989,0 1.177199,0 2.354399,0 3.531598,0"
       id="path2993"
       inkscape:connector-curvature="0"
       transform="translate(0,988.3622)" />
    <path
       style="fill:none;stroke:#000000;stroke-width:1px;stroke-linecap:butt;stroke-linejoin:miter;stroke-opacity:1"
       d="m 20.63197,41.695167 c 2.04461,0 4.08922,0 6.133829,0 0.433705,0 0.86741,0 1.301115,0 0.06196,0 0.142063,0.04381 0.185874,0 0.09796,-0.09796 0.0706,-0.294898 0.185874,-0.371747 0.103104,-0.06874 0.247831,0 0.371747,0 0.247831,0 0.495663,0 0.743494,0 0.681537,0 1.363073,0 2.04461,0 2.416357,0 4.832714,0 7.249071,0"
       id="path2995"
       inkscape:connector-curvature="0"
       transform="translate(0,988.3622)" />
    <path
       style="fill:none;stroke:#000000;stroke-width:1px;stroke-linecap:butt;stroke-linejoin:miter;stroke-opacity:1"
       d="m 32.527881,24.037175 c 0.31805,0.346964 0.954151,-0.260223 1.301115,0 0.156743,0.117557 0.04733,0.419079 0.185874,0.557621 0.08762,0.08762 0.247831,0 0.371747,0 0.185874,0 0.377297,-0.04508 0.557621,0 0.08501,0.02125 0.102748,0.158165 0.185874,0.185873 0.235113,0.07837 0.503062,-0.06011 0.743494,0 0.134405,0.0336 0.235896,0.158703 0.371747,0.185874 0.297875,0.05957 0.631494,-0.05958 0.929368,0 0.192123,0.03842 0.363662,0.158165 0.557621,0.185873 0.245341,0.03505 0.495663,0 0.743494,0 0.185874,0 0.371748,0 0.557621,0 0.185874,0 0.374276,-0.03056 0.557621,0 0.193262,0.03221 0.364359,0.153664 0.557621,0.185874 0.243615,0.0406 1.002196,0 1.301115,0 0.06196,0 0.142063,-0.04381 0.185874,0 0.04381,0.04381 -0.04381,0.142063 0,0.185874 0.006,0.006 0.512541,0 0.557621,0"
       id="path3001"
       inkscape:connector-curvature="0"
       transform="translate(0,988.3622)" />
    <path
       style="fill:none;stroke:#000000;stroke-width:1px;stroke-linecap:butt;stroke-linejoin:miter;stroke-opacity:1"
       d="m 38.289963,18.089219 c 0.247831,0 0.513389,-0.09204 0.743494,0 0.128633,0.05145 0.06196,0.30979 0.185874,0.371748 0.16625,0.08312 0.381285,-0.05878 0.557621,0 0.05878,0.01959 0,0.123915 0,0.185873 0.185873,0.06196 0.367542,0.138354 0.55762,0.185874 0.06011,0.01503 0.123916,0 0.185874,0 0.123916,0 0.247832,0 0.371747,0 0.185874,0 0.377297,-0.04508 0.557621,0 0.08501,0.02125 0.107503,0.146688 0.185874,0.185873 0.358008,0.179005 0.94379,0.252639 1.301115,0.371748 0.131432,0.04381 0.23509,0.163097 0.371747,0.185873 0.562694,0.09378 1.286905,-0.08169 1.858736,0 0.252892,0.03613 0.491512,0.143877 0.743495,0.185874 0.306079,0.05101 1.064995,-0.07871 1.301115,0 0.05878,0.01959 -0.04381,0.142063 0,0.185873 0.0046,0.0046 0.859539,0 0.929368,0 1.548947,0 3.097893,0 4.64684,0 0.743495,0 1.486989,0 2.230483,0 0.06196,0 0.123916,0 0.185874,0 0.06196,0 0.142063,0.04381 0.185874,0 0.09796,-0.09796 0.123915,-0.247831 0.185873,-0.371747"
       id="path3003"
       inkscape:connector-curvature="0"
       transform="translate(0,988.3622)" />
  </g>
</svg>
