<?xml version="1.0" encoding="UTF-8" standalone="no"?>
<!-- Created with Inkscape (http://www.inkscape.org/) -->

<svg
   xmlns:dc="http://purl.org/dc/elements/1.1/"
   xmlns:cc="http://creativecommons.org/ns#"
   xmlns:rdf="http://www.w3.org/1999/02/22-rdf-syntax-ns#"
   xmlns:svg="http://www.w3.org/2000/svg"
   xmlns="http://www.w3.org/2000/svg"
   xmlns:sodipodi="http://sodipodi.sourceforge.net/DTD/sodipodi-0.dtd"
   xmlns:inkscape="http://www.inkscape.org/namespaces/inkscape"
   width="200"
   height="200"
   id="svg2"
   version="1.1"
   inkscape:version="0.48.4 r9939"
   sodipodi:docname="las_mieszany_mtb.svg">
  <defs
     id="defs4" />
  <sodipodi:namedview
     id="base"
     pagecolor="#ffffff"
     bordercolor="#666666"
     borderopacity="1.0"
     inkscape:pageopacity="0.0"
     inkscape:pageshadow="2"
     inkscape:zoom="1.979899"
     inkscape:cx="84.721334"
     inkscape:cy="117.75201"
     inkscape:document-units="px"
     inkscape:current-layer="layer1"
     showgrid="false"
     inkscape:window-width="1280"
     inkscape:window-height="751"
     inkscape:window-x="0"
     inkscape:window-y="25"
     inkscape:window-maximized="1" />
  <metadata
     id="metadata7">
    <rdf:RDF>
      <cc:Work
         rdf:about="">
        <dc:format>image/svg+xml</dc:format>
        <dc:type
           rdf:resource="http://purl.org/dc/dcmitype/StillImage" />
        <dc:title></dc:title>
      </cc:Work>
    </rdf:RDF>
  </metadata>
  <g
     inkscape:label="Layer 1"
     inkscape:groupmode="layer"
     id="layer1"
     transform="translate(0,-852.36218)">
    <path
       style="fill:#000000;fill-opacity:1;stroke:#000000;stroke-width:2;stroke-miterlimit:4;stroke-opacity:1;stroke-dasharray:none"
       id="path3864"
       d="m 53.862207,66.320577 c 1.029542,1.731795 2.232332,3.350413 3.35023,5.024675 2.195805,3.241373 3.722819,6.851503 5.102711,10.496369 1.910987,5.951498 3.826608,11.901895 5.655373,17.879295 1.703775,5.629144 3.24733,11.300684 4.603052,17.023194 0.763592,3.50617 1.460479,7.02856 2.130127,10.55422 0.313357,1.48555 0.431817,2.99311 0.483175,4.5066 0,0 -6.904709,2.45708 -6.904709,2.45708 l 0,0 c 0.02161,-1.33724 0.04326,-2.67683 -0.05488,-4.01184 -0.29033,-3.51283 -0.826409,-7.00332 -1.420272,-10.47579 -1.177506,-5.67381 -2.564973,-11.2976 -4.221539,-16.85226 -1.77606,-5.845804 -3.641205,-11.662029 -5.722196,-17.407806 -1.370583,-3.261501 -2.837182,-6.513012 -4.850195,-9.437764 -1.07691,-1.581183 -2.283767,-3.067688 -3.487392,-4.553463 0,0 5.336512,-5.20251 5.336512,-5.20251 z"
       inkscape:connector-curvature="0"
       transform="translate(0,852.36218)" />
    <path
       style="fill:#000000;fill-opacity:1;stroke:#000000;stroke-width:2;stroke-miterlimit:4;stroke-opacity:1;stroke-dasharray:none"
       id="path3866"
       d="m 98.681985,70.667501 c -0.770532,1.193947 -0.682742,1.08279 1.087755,-2.072617 0.142462,-0.253898 -0.272483,0.514701 -0.400003,0.776423 -0.38657,0.793395 -0.700769,1.619009 -1.033557,2.435635 -0.554501,1.925366 -1.246878,3.808288 -1.812265,5.729845 -1.000331,2.914836 -1.781183,5.89619 -2.490864,8.892945 -0.73217,2.946461 -1.16574,5.947638 -1.540459,8.95572 -0.325495,1.907323 -0.500962,3.830342 -0.640474,5.758288 -0.144361,2.53275 -0.151629,5.0697 -0.185934,7.60547 -0.01401,2.85529 -0.0023,5.71125 0.06558,8.56587 0,0 -6.689119,2.33212 -6.689119,2.33212 l 0,0 c 0.06414,-2.86871 0.07178,-5.73866 0.05275,-8.60793 -0.03697,-2.5732 -0.07451,-5.14696 -0.08515,-7.72018 0.02365,-2.12494 0.196733,-4.249823 0.588131,-6.340777 0.615142,-3.09563 0.998246,-6.23759 1.666358,-9.325051 0.702551,-3.040738 1.293068,-6.113796 2.235349,-9.092562 0.424444,-1.512367 0.226839,-0.742941 0.590384,-2.308901 0.3381,-1.220298 0.901544,-2.377658 1.109948,-3.636798 0.845175,-2.950606 2.122895,-5.704201 3.704394,-8.348463 0,0 3.777176,6.400963 3.777176,6.400963 z"
       inkscape:connector-curvature="0"
       transform="translate(0,852.36218)" />
    <path
       style="fill:#000000;fill-opacity:1;stroke:#000000;stroke-width:2;stroke-miterlimit:4;stroke-opacity:1;stroke-dasharray:none"
       id="path3868"
       d="m 143.26071,111.77744 c 0.95394,1.61879 1.97253,3.19699 3.01581,4.7594 2.1192,3.30167 3.54406,7.01737 5.02045,10.64095 1.77123,4.69812 2.85649,9.63348 3.80356,14.55508 0.67388,3.52149 1.50698,7.00954 2.01168,10.5615 0.27166,1.84334 0.33917,3.70569 0.38923,5.56535 0.005,0.22548 0.009,0.45097 0.0136,0.67645 0,0 -6.89962,2.39188 -6.89962,2.39188 l 0,0 c 0.005,-0.22143 0.0109,-0.44286 0.0164,-0.6643 0.0401,-1.72876 0.0643,-3.45914 -0.008,-5.18745 -0.21521,-3.5189 -0.73951,-7.00463 -1.44248,-10.45896 -0.7346,-4.64272 -1.79802,-9.25238 -3.41149,-13.67301 -1.33627,-3.28056 -2.70686,-6.60684 -4.63493,-9.58732 -1.07989,-1.45247 -2.15155,-2.91112 -3.2106,-4.37706 0,0 5.33651,-5.20251 5.33651,-5.20251 z"
       inkscape:connector-curvature="0"
       transform="translate(0,852.36218)" />
    <path
       style="fill:#000000;fill-opacity:1;stroke:#000000;stroke-width:2;stroke-miterlimit:4;stroke-opacity:1;stroke-dasharray:none"
       id="path3870"
       d="m 179.54939,119.42488 c -0.64282,0.37671 -0.87978,1.04773 -1.18483,1.67628 -0.13083,0.26956 -0.59231,1.04182 -0.4387,0.78456 0.43166,-0.72294 0.84865,-1.45454 1.27298,-2.18181 -1.13243,2.09305 -2.00526,4.30934 -2.89226,6.51396 -0.89788,2.05283 -1.61995,4.16959 -2.2382,6.32105 -0.85569,3.0167 -1.4422,6.09637 -1.96535,9.18509 -0.35152,2.45719 -0.71134,4.91095 -1.1286,7.35785 -0.308,1.20644 -0.60519,2.40773 -0.90166,3.61696 -0.30611,1.21715 -0.39519,2.45952 -0.43073,3.70891 -0.0253,0.85427 -0.0145,1.70659 0.0307,2.55967 0,0 -7.13865,1.8416 -7.13865,1.8416 l 0,0 c 0.41694,-0.55638 0.056,-1.45091 0.1815,-2.10872 0.0265,-1.50878 -0.0107,-3.02643 0.20607,-4.52294 0.0428,-0.27462 0.17374,-1.16024 0.24364,-1.43695 0.0426,-0.16858 0.13628,-0.32218 0.17278,-0.49219 0.14524,-0.67652 0.14833,-1.38476 0.47054,-2.02156 0.8966,-2.23127 1.14889,-4.69805 1.66644,-7.03021 0.56159,-3.17754 0.94447,-6.38166 1.52938,-9.55555 0.6036,-2.35032 1.30881,-4.67786 2.273,-6.90649 0.93913,-2.30182 1.77978,-4.6478 2.78889,-6.91673 1.82237,-3.32795 2.58385,-5.3901 5.49498,-7.57552 0,0 1.98811,7.18274 1.98811,7.18274 z"
       inkscape:connector-curvature="0"
       transform="translate(0,852.36218)" />
  </g>
</svg>
