<?xml version="1.0" encoding="UTF-8" standalone="no"?>
<!-- Created with Inkscape (http://www.inkscape.org/) -->

<svg
   xmlns:dc="http://purl.org/dc/elements/1.1/"
   xmlns:cc="http://creativecommons.org/ns#"
   xmlns:rdf="http://www.w3.org/1999/02/22-rdf-syntax-ns#"
   xmlns:svg="http://www.w3.org/2000/svg"
   xmlns="http://www.w3.org/2000/svg"
   xmlns:sodipodi="http://sodipodi.sourceforge.net/DTD/sodipodi-0.dtd"
   xmlns:inkscape="http://www.inkscape.org/namespaces/inkscape"
   width="200"
   height="200"
   id="svg2"
   version="1.1"
   inkscape:version="0.48.4 r9939"
   sodipodi:docname="las_iglasty_mtb.svg">
  <defs
     id="defs4" />
  <sodipodi:namedview
     id="base"
     pagecolor="#ffffff"
     bordercolor="#666666"
     borderopacity="1.0"
     inkscape:pageopacity="0.0"
     inkscape:pageshadow="2"
     inkscape:zoom="1.979899"
     inkscape:cx="84.721334"
     inkscape:cy="117.75201"
     inkscape:document-units="px"
     inkscape:current-layer="layer1"
     showgrid="false"
     inkscape:window-width="1280"
     inkscape:window-height="751"
     inkscape:window-x="0"
     inkscape:window-y="25"
     inkscape:window-maximized="1" />
  <metadata
     id="metadata7">
    <rdf:RDF>
      <cc:Work
         rdf:about="">
        <dc:format>image/svg+xml</dc:format>
        <dc:type
           rdf:resource="http://purl.org/dc/dcmitype/StillImage" />
        <dc:title></dc:title>
      </cc:Work>
    </rdf:RDF>
  </metadata>
  <g
     inkscape:label="Layer 1"
     inkscape:groupmode="layer"
     id="layer1"
     transform="translate(0,-852.36218)">
    <path
       style="fill:#000000;fill-opacity:1;stroke:#000000;stroke-width:2;stroke-miterlimit:4;stroke-opacity:1;stroke-dasharray:none"
       id="path3786"
       d="m 21.555882,1032.4427 c 0.0266,-2.57 0.735634,-5.0465 1.321208,-7.531 0.988766,-4.5307 2.0745,-9.0376 2.950981,-13.5925 1.165823,-6.7932 1.873752,-13.64825 2.722958,-20.48398 1.010363,-6.66231 1.977681,-13.33282 3.090496,-19.97898 0.824987,-5.02883 1.754916,-10.0379 2.514863,-15.07781 0.481003,-3.23471 1.036589,-6.45787 1.381693,-9.71085 0.30075,-1.84879 0.40259,-3.72571 0.683987,-5.57573 0.859662,-4.62929 -0.152304,-2.3876 8.084931,-3.88276 0.845996,1.83485 1.348541,3.79826 1.853416,5.74711 0.736487,2.52195 1.029291,5.12841 1.334694,7.728 0.386187,4.16384 0.863631,8.31116 1.514392,12.44192 0.518317,2.80284 0.959907,5.62753 1.70001,8.38298 0.521359,2.09 1.188032,4.14027 1.847115,6.18988 0.726501,2.40474 1.739768,4.70688 2.51674,7.09383 0.458172,1.32286 0.941079,2.64149 1.231749,4.0126 0.629908,2.27481 1.181657,4.57181 1.873947,6.82985 0.551972,1.80238 1.134838,3.59732 1.644447,5.41224 0.364169,1.4374 0.603804,2.9013 1.003348,4.3295 0.257666,1.4944 0.781782,2.9176 1.135828,4.3875 0.159211,1.0317 0.31843,2.057 0.513993,3.0831 0.09435,1.1723 0.509765,2.2727 0.840414,3.39 0.25999,1.0357 0.366723,2.0937 0.706249,3.1094 0.42411,0.9527 0.473374,2.0044 0.743922,2.9947 0.153846,1.2394 0.709339,2.2775 1.356236,3.3244 0.699959,1.3395 1.361832,1.9758 2.834252,2.2825 -0.769565,0.5298 3.119415,-0.3709 2.106856,-0.2037 -11.184952,1.8465 -7.175914,1.3602 -4.589986,0.5984 3.842599,-1.1878 7.840985,-1.9089 11.849474,-2.2323 1.13538,-0.075 2.27378,-0.069 3.41096,-0.066 1.21616,10e-4 2.43222,0.016 3.64834,0.023 1.18635,0.01 2.37269,0.01 3.55904,0 0,0 -6.97145,2.265 -6.97145,2.265 l 0,0 c -1.18891,-0 -2.37781,-0.01 -3.56672,-0 -1.24382,0 -2.487613,0.012 -3.731443,0.01 -1.114863,0 -2.231503,0.01 -3.342233,0.1176 -2.518878,0.2792 -6.473631,1.0707 4.959776,-0.9574 0.27501,-0.049 -0.550464,0.096 -0.823062,0.1569 -0.608555,0.1357 -1.079519,0.2857 -1.678928,0.4621 -3.154323,1.0691 -6.275112,1.3919 -9.672035,2.0058 -0.544111,0.098 -1.048771,0.1313 -1.599026,0.059 -0.22098,-0.029 -0.4336,-0.1031 -0.6504,-0.1547 -1.474832,-0.5548 -2.192952,-1.4347 -2.919216,-2.8153 -0.689424,-1.1135 -1.314501,-2.2129 -1.50111,-3.5301 -0.222661,-0.9852 -0.310328,-2.0036 -0.711675,-2.9447 -0.330754,-1.0269 -0.461784,-2.0861 -0.699323,-3.1349 -0.330294,-1.1425 -0.732113,-2.269 -0.872298,-3.4573 -0.192961,-1.0179 -0.358981,-2.0322 -0.487207,-3.06 -0.316157,-1.4647 -0.741569,-2.9046 -1.05721,-4.3694 -0.3871,-1.4332 -0.724448,-2.8814 -1.053312,-4.3286 -0.444099,-1.81578 -0.923107,-3.62461 -1.437533,-5.42155 -0.695825,-2.28228 -1.309515,-4.58901 -2.080764,-6.84774 -0.319132,-1.34112 -0.770386,-2.64821 -1.146271,-3.97429 -0.670054,-2.40898 -1.614951,-4.72365 -2.407088,-7.09339 -0.711413,-2.05535 -1.484602,-4.10085 -1.947745,-6.23048 -0.63106,-2.80693 -0.93276,-5.67041 -1.397058,-8.50723 -0.551905,-4.14396 -1.081328,-8.29106 -1.714796,-12.42334 -0.328109,-2.56228 -0.65233,-5.13688 -1.374319,-7.62471 -0.361022,-1.3887 -0.86582,-3.63469 -1.719297,-4.80662 -0.05459,-0.075 -0.156952,-0.0988 -0.235428,-0.1482 15.57257,-3.34925 7.395451,-3.47245 6.766824,-0.94642 -0.13914,0.55911 -0.17051,1.14794 -0.340848,1.70136 -0.381323,1.83537 -0.530951,3.71916 -0.887795,5.56057 -0.41999,3.27327 -1.024826,6.51801 -1.584091,9.76961 -0.850438,5.06396 -1.980114,10.07396 -2.854684,15.13312 -1.146833,6.63746 -2.134298,13.30243 -3.165562,19.95862 -0.823682,6.83839 -1.617655,13.67949 -2.587247,20.49909 -0.718463,4.5508 -1.597682,9.0695 -2.568647,13.5732 -0.515706,2.3996 -1.23082,4.836 -0.931469,7.3106 0,0 -7.395863,1.1714 -7.395863,1.1714 z"
       inkscape:connector-curvature="0" />
    <path
       style="fill:#000000;fill-opacity:1;stroke:#000000;stroke-width:2;stroke-miterlimit:4;stroke-opacity:1;stroke-dasharray:none"
       id="path3813"
       d="m 174.59399,913.74982 c 0.0457,-2.22982 -0.6583,-4.43543 -1.08574,-6.6156 -0.47439,-2.57895 -1.09293,-5.12776 -1.77049,-7.65995 -0.76075,-2.89659 -1.88203,-5.69409 -3.05838,-8.44461 -1.14248,-2.82126 -2.7409,-5.39325 -4.4905,-7.86951 -1.42067,-1.9328 -3.27521,-3.30181 -5.50778,-4.12998 -3.04636,-0.84215 -6.24288,-0.80427 -9.37803,-0.85849 -0.65747,0.0658 -1.31795,0.1064 -1.97239,0.19755 -0.62359,0.0869 -2.48139,0.42909 -1.85869,0.33605 1.70361,-0.25457 3.38954,-0.63464 5.10199,-0.82069 0.54672,-0.0594 -1.06376,0.28044 -1.59029,0.43917 -1.41617,0.42692 -1.43617,0.4719 -2.7766,1.02169 -2.50338,1.14029 -4.40409,2.99768 -6.08258,5.12678 -2.14065,2.93804 -3.91115,6.12404 -5.48752,9.39327 -1.49278,3.08942 -2.19855,6.40178 -2.58811,9.78463 -0.24268,2.66062 -0.23492,5.33474 -0.2255,8.00375 0.10459,1.59683 -0.20309,3.25614 0.19087,4.82926 0.0974,0.38895 0.97627,2.76711 1.05281,2.97737 1.19706,3.01144 3.01957,5.70297 4.70181,8.45262 1.096,1.53554 2.32751,2.96024 3.6213,4.33019 1.29576,1.33895 2.81295,2.36899 4.44256,3.2494 1.86851,0.85794 3.7984,1.60419 5.75187,2.24711 1.81414,0.63473 3.68704,1.06228 5.59518,1.27623 1.5659,0.0964 3.14668,0.21494 4.69617,-0.0575 -11.32557,2.06761 -6.33511,1.32067 -3.94157,0.32548 1.11009,-0.46156 2.10293,-1.05867 3.11535,-1.69959 1.627,-1.09296 3.20415,-2.25444 4.70469,-3.51521 1.23442,-1.07814 2.23312,-2.37669 3.11304,-3.7505 0.8132,-1.40731 1.21152,-3.0013 1.6406,-4.55614 0.40852,-1.62567 0.7497,-3.25927 0.9702,-4.92081 0.15339,-2.29902 0.3867,-4.59138 0.54178,-6.8907 0.0612,-2.47911 0.38962,-4.93257 0.73272,-7.38397 0.16952,-1.16603 0.26991,-2.33954 0.32726,-3.51587 0,0 7.32157,-1.11637 7.32157,-1.11637 l 0,0 c -0.0803,1.20899 -0.21956,2.41231 -0.43918,3.60466 -0.41868,2.42639 -0.82625,4.85845 -0.83655,7.32972 -0.12119,2.30266 -0.32174,4.59988 -0.4067,6.90442 -0.13982,1.71124 -0.57799,3.36167 -0.94962,5.03346 -0.42318,1.61729 -0.82704,3.27512 -1.59994,4.7654 -0.86282,1.45316 -1.89094,2.79963 -3.10265,3.98229 -1.52681,1.30104 -3.14305,2.48205 -4.79833,3.61456 -4.75419,3.14317 -6.68367,3.14079 -13.3033,4.13107 -1.60377,0.12722 -3.22701,0.10755 -4.8238,-0.10418 -1.8825,-0.31166 -3.71748,-0.82919 -5.52359,-1.44254 -1.98129,-0.69408 -3.97043,-1.40005 -5.84181,-2.35939 -1.65148,-0.95192 -3.17764,-2.08168 -4.4948,-3.46887 -1.30693,-1.40638 -2.56906,-2.85278 -3.5632,-4.50501 -1.61624,-2.81419 -3.29274,-5.60722 -4.57396,-8.59644 -0.21019,-0.49967 -1.07509,-2.49654 -1.24148,-3.10345 -0.44003,-1.60498 -0.0846,-3.30489 -0.20654,-4.93822 0.0122,-2.70262 0.0257,-5.4112 0.31155,-8.10188 0.41981,-3.45608 1.11935,-6.87551 2.65865,-10.02844 1.56843,-3.28768 3.29533,-6.51107 5.35253,-9.52236 1.64371,-2.25865 3.49821,-4.2382 6.0431,-5.49515 5.29068,-2.35654 11.15772,-3.1479 16.89412,-3.61113 3.24437,0.0623 6.57264,-0.0214 9.68358,1.03841 2.31563,1.01387 4.09962,2.46285 5.55976,4.5473 1.72585,2.53271 3.27512,5.17696 4.41581,8.03044 1.2106,2.78325 2.42009,5.59073 3.22679,8.52188 0.65666,2.5535 1.24205,5.12063 1.70358,7.71714 0.44569,2.24256 1.17706,4.43026 1.44425,6.69986 0,0 -7.39587,1.17139 -7.39587,1.17139 z"
       inkscape:connector-curvature="0" />
    <path
       style="fill:#000000;fill-opacity:1;stroke:#000000;stroke-width:2;stroke-miterlimit:4;stroke-opacity:1;stroke-dasharray:none"
       id="path3815"
       d="m 101.69808,912.60287 c -1.25778,-0.0248 -2.515913,-0.0183 -3.773854,-0.0156 -1.153943,-0.20752 -2.068178,-0.83418 -3.002554,-1.48522 -0.638602,-0.54863 -0.962835,-1.32356 -1.409293,-2.00978 -0.412469,-0.71828 -0.539109,-1.54187 -0.799825,-2.31932 -0.219906,-0.89846 -0.500675,-1.77898 -0.685381,-2.6864 -0.189331,-0.83806 -0.348396,-1.71906 -0.654078,-2.52516 -0.225331,-0.69581 -0.674686,-1.24685 -1.281609,-1.64413 -0.71263,-0.62731 -1.523708,-1.13505 -2.256867,-1.73501 -0.122812,-0.0814 -0.228115,-0.19925 -0.368438,-0.24413 -0.09817,-0.0314 -0.20531,0.0185 -0.307965,0.0278 2.334462,-0.35402 4.669246,-0.70592 7.003387,-1.06205 0.09701,-0.0148 -0.201817,-7.9e-4 -0.291939,0.038 -0.230337,0.0993 -0.48151,0.40153 -0.639523,0.56549 -0.739464,0.97062 -1.524496,1.89876 -2.212185,2.9081 -0.917459,1.39726 -1.712133,2.88227 -2.351945,4.42666 -0.405311,0.9713 -0.838797,1.92961 -1.256784,2.89503 -0.27716,0.75004 -0.544496,1.49862 -0.789216,2.25965 -0.180047,0.48965 -0.357438,0.97704 -0.579904,1.44926 0,0 -7.418115,0.84341 -7.418115,0.84341 l 0,0 c 0.21607,-0.46241 0.450708,-0.8992 0.589069,-1.3949 0.327399,-0.71481 0.474653,-1.5515 0.799049,-2.27548 0.379568,-1.00016 0.92171,-1.93524 1.358978,-2.91189 0.647769,-1.58079 1.443574,-3.10914 2.344306,-4.55901 0.639786,-1.0572 1.384878,-2.01243 2.110626,-3.00381 0.07092,-0.0912 0.806973,-1.09418 0.85858,-1.1041 5.762627,-1.10796 5.80978,-2.62804 8.362809,-0.68514 0.769749,0.56322 1.513808,1.15601 2.272321,1.73357 0.63527,0.56951 1.131657,1.23331 1.378842,2.06287 0.2701,0.85617 0.481085,1.74167 0.646785,2.62292 0.18422,0.87822 0.47119,1.72714 0.696003,2.59478 0.24123,0.72658 0.35689,1.50091 0.77462,2.15582 0.35676,0.6309 0.71699,1.28088 1.31864,1.71442 0.84204,0.60041 1.75943,1.04554 2.81699,1.06505 1.29001,0.003 2.58017,0.008 3.87003,-0.0156 0,0 -7.12156,2.31394 -7.12156,2.31394 z"
       inkscape:connector-curvature="0" />
    <path
       style="fill:#000000;fill-opacity:1;stroke:#000000;stroke-width:2;stroke-miterlimit:4;stroke-opacity:1;stroke-dasharray:none"
       id="path3821"
       d="m 128.7721,989.34067 c 0.8261,-0.71625 1.71684,-1.35523 2.57422,-2.03382 0.80586,-0.59673 1.6226,-1.17951 2.4555,-1.73799 1.2778,-0.63979 2.18747,-1.63248 3.04127,-2.75192 1.11243,-1.65415 2.16369,-3.35036 2.90015,-5.20715 0.2769,-1.00974 0.72338,-2.185 0.44008,-3.2357 -0.44565,-0.75956 -0.99838,-1.48101 -1.66027,-2.06602 -0.66627,-0.80503 -1.43461,-1.50413 -2.16887,-2.24069 -0.82628,-0.73956 -1.88501,-0.96889 -2.86131,-1.40396 -0.53486,-0.30303 -1.15548,-0.29067 -1.73048,-0.43326 -0.27765,-0.0689 -0.53838,-0.19382 -0.81038,-0.2824 -2.87297,-0.77041 -7.5406,0.59966 4.65001,-1.37675 -0.93674,0.24499 -1.69519,0.90768 -2.52472,1.3872 -0.96398,0.54608 -1.84177,1.21813 -2.73041,1.87568 -0.957,0.69407 -1.78733,1.53997 -2.61777,2.37621 -0.67025,0.76252 -1.182,1.63036 -1.67718,2.51137 -0.47965,0.983 -1.00365,1.95718 -1.36362,2.99259 -0.40843,1.04509 0.10833,1.89664 0.48374,2.86645 0.47638,0.96547 0.74813,2.02803 1.36448,2.91902 0.38964,0.64766 0.90734,1.20689 1.55216,1.60497 0.68986,0.54752 1.48724,0.9767 2.26633,1.39368 0.91955,0.57245 1.86597,1.08007 2.91477,1.36396 0.98725,0.21581 2.00205,0.22131 3.00767,0.23066 -1.55306,0.27327 3.08273,-0.28229 1.51394,-0.003 -12.08128,2.15401 -8.32573,1.77877 -5.96461,0.82974 0.81377,-0.29636 1.56706,-0.71259 2.40048,-0.95415 2.5644,-0.45052 5.12594,-0.91764 7.6932,-1.35154 0.31232,-0.0528 1.2609,-0.10093 0.94918,-0.0447 -12.059,2.17341 -8.47619,1.54853 -6.00072,0.98818 2.91673,-0.6151 1.30491,-0.28068 8.11948,-1.41838 0.30748,-0.0513 1.2404,-0.11006 0.93357,-0.055 -9.61378,1.72593 -8.93807,1.5928 -6.42699,1.08118 2.80596,-0.68051 5.69181,-1.04298 8.52594,-1.52881 2.28582,-0.39184 -4.5673,0.80902 -6.8545,1.19275 -0.26814,0.045 0.52307,-0.14868 0.78345,-0.22695 4.75679,-1.04874 15.55232,-2.67481 1.23976,-0.27001 -0.13148,0.0221 0.25627,-0.0737 0.38396,-0.11205 0.67209,-0.20188 0.11786,-0.0475 0.81092,-0.23372 0.15703,6.19412 6.11863,-2.75355 8.58686,-1.20095 0.25997,0.16353 0.4667,0.39942 0.70338,0.59516 0,0 -7.22693,1.84893 -7.22693,1.84893 l 0,0 c -0.2285,-0.14807 -0.33514,-0.26203 -0.61162,-0.28463 -0.17576,-0.0144 -0.66763,0.0745 -0.81496,0.0974 2.27137,-0.40604 4.54274,-0.81207 6.81411,-1.2181 -0.40754,0.0706 -0.79146,0.22084 -1.19148,0.29835 -4.87925,0.94549 -14.67165,2.68674 -0.82762,0.20863 0.13747,-0.0246 -0.27519,0.0478 -0.41278,0.0717 -2.79683,0.69118 -5.4394,0.91308 -8.43031,1.63682 -2.23996,0.54203 4.53889,-0.802 6.80758,-1.2073 0.27831,-0.0497 -1.10735,0.17197 -0.83368,0.1561 -2.89144,0.8075 -0.58606,0.1784 -8.08296,1.44423 -0.30582,0.0516 -1.22971,0.16019 -0.92447,0.1052 6.17863,-1.11303 9.13176,-1.55663 6.37998,-1.13992 -4.28854,0.89206 -17.52353,2.95843 -2.64554,0.40613 -0.9233,0.13846 -1.57126,0.45887 -2.40912,0.82693 -0.28492,0.11824 -0.53889,0.32575 -0.84168,0.38472 -3.54736,0.69083 -6.01478,1.4944 -9.2161,1.3559 -1.03417,-0.0382 -2.07708,-0.10172 -3.06455,-0.44024 -1.03799,-0.39511 -1.99808,-0.94815 -2.95891,-1.50156 -0.79066,-0.4608 -1.61659,-0.86546 -2.31298,-1.4693 -0.65191,-0.53156 -1.21027,-1.14962 -1.6149,-1.89362 -0.54028,-0.97898 -0.8703,-2.04653 -1.33909,-3.05949 -0.43628,-1.11188 -1.023,-2.14441 -0.60527,-3.35956 0.33089,-1.10734 0.92821,-2.09119 1.39601,-3.14317 0.5063,-0.91877 0.94752,-1.86446 1.60788,-2.68565 0.80617,-0.91466 1.75325,-1.71077 2.67229,-2.50851 0.86673,-0.66936 1.70249,-1.39897 2.66287,-1.93074 0.82343,-0.57299 1.74815,-0.99945 2.51954,-1.66057 3.8783,-0.64822 6.54944,-1.95815 9.9408,-0.85946 0.84756,0.25584 1.73763,0.37489 2.53529,0.78655 1.06229,0.4069 2.08245,0.8937 2.92211,1.68354 0.74841,0.72527 1.47248,1.47172 2.18478,2.23259 0.69714,0.74087 1.36613,1.53084 1.74956,2.48527 0.24415,1.23752 -0.0886,2.50835 -0.472,3.68995 -0.76756,1.90739 -1.86228,3.63646 -2.93798,5.38239 -0.77617,1.19745 -1.57405,2.35828 -2.86615,3.04235 -0.87583,0.47842 -1.64846,1.11827 -2.47746,1.66803 -0.85932,0.60637 -1.65474,1.29362 -2.49866,1.92133 0,0 -7.47827,0.58855 -7.47827,0.58855 z"
       inkscape:connector-curvature="0" />
  </g>
</svg>
