<?xml version="1.0" encoding="UTF-8" standalone="no"?>
<!-- Created with Inkscape (http://www.inkscape.org/) -->

<svg
   xmlns:dc="http://purl.org/dc/elements/1.1/"
   xmlns:cc="http://creativecommons.org/ns#"
   xmlns:rdf="http://www.w3.org/1999/02/22-rdf-syntax-ns#"
   xmlns:svg="http://www.w3.org/2000/svg"
   xmlns="http://www.w3.org/2000/svg"
   xmlns:sodipodi="http://sodipodi.sourceforge.net/DTD/sodipodi-0.dtd"
   xmlns:inkscape="http://www.inkscape.org/namespaces/inkscape"
   width="200"
   height="200"
   id="svg2"
   version="1.1"
   inkscape:version="0.48.4 r9939"
   sodipodi:docname="las_lisciasty_mtb.svg">
  <defs
     id="defs4" />
  <sodipodi:namedview
     id="base"
     pagecolor="#ffffff"
     bordercolor="#666666"
     borderopacity="1.0"
     inkscape:pageopacity="0.0"
     inkscape:pageshadow="2"
     inkscape:zoom="1.979899"
     inkscape:cx="84.721334"
     inkscape:cy="117.75201"
     inkscape:document-units="px"
     inkscape:current-layer="layer1"
     showgrid="false"
     inkscape:window-width="1280"
     inkscape:window-height="751"
     inkscape:window-x="0"
     inkscape:window-y="25"
     inkscape:window-maximized="1" />
  <metadata
     id="metadata7">
    <rdf:RDF>
      <cc:Work
         rdf:about="">
        <dc:format>image/svg+xml</dc:format>
        <dc:type
           rdf:resource="http://purl.org/dc/dcmitype/StillImage" />
        <dc:title></dc:title>
      </cc:Work>
    </rdf:RDF>
  </metadata>
  <g
     inkscape:label="Layer 1"
     inkscape:groupmode="layer"
     id="layer1"
     transform="translate(0,-852.36218)">
    <path
       style="fill:#000000;fill-opacity:1;stroke:#000000;stroke-width:2;stroke-miterlimit:4;stroke-opacity:1;stroke-dasharray:none"
       id="path3786"
       d="m 22.060958,973.85389 c 0.0266,-2.57004 0.735634,-5.04655 1.321208,-7.53102 0.988766,-4.53074 2.0745,-9.03759 2.950981,-13.59249 1.165823,-6.7932 1.873752,-13.64828 2.722958,-20.48401 1.010363,-6.66231 1.977681,-13.33282 3.090496,-19.97898 0.824987,-5.02883 1.754916,-10.0379 2.514863,-15.07781 0.481003,-3.23471 1.036589,-6.45787 1.381693,-9.71085 0.30075,-1.84879 0.40259,-3.72571 0.683987,-5.57573 0.859662,-4.62929 -0.152304,-2.3876 8.084931,-3.88276 0.845996,1.83485 1.348541,3.79826 1.853416,5.74711 0.736487,2.52195 1.029291,5.12841 1.334694,7.728 0.386187,4.16384 0.863631,8.31116 1.514392,12.44192 0.518317,2.80284 0.959907,5.62753 1.70001,8.38298 0.521359,2.09 1.188032,4.14027 1.847115,6.18988 0.726501,2.40474 1.739768,4.70688 2.51674,7.09383 0.458172,1.32286 0.941079,2.64149 1.231749,4.0126 0.629908,2.27481 1.181657,4.57181 1.873947,6.82985 0.551972,1.80238 1.134838,3.59732 1.644447,5.41228 0.364169,1.43733 0.603804,2.90123 1.003348,4.32945 0.257666,1.49441 0.781782,2.91763 1.135828,4.38749 0.159211,1.03168 0.31843,2.05699 0.513993,3.08308 0.09435,1.1723 0.509765,2.2727 0.840414,3.39007 0.25999,1.03563 0.366723,2.09371 0.706249,3.10939 0.42411,0.95273 0.473374,2.00439 0.743922,2.99469 0.153846,1.23944 0.709339,2.27748 1.356236,3.32439 0.699959,1.33951 1.361832,1.9758 2.834252,2.28248 -0.769565,0.52982 3.119415,-0.37084 2.106856,-0.20368 -11.184952,1.84652 -7.175914,1.36024 -4.589986,0.5984 3.842599,-1.18783 7.840985,-1.90891 11.849474,-2.23231 1.13538,-0.0748 2.27378,-0.0688 3.41096,-0.0659 1.21616,0.001 2.43222,0.0158 3.64834,0.0229 1.18635,0.008 2.37269,0.006 3.55904,0.003 0,0 -6.97145,2.26497 -6.97145,2.26497 l 0,0 c -1.18891,-0.004 -2.37781,-0.006 -3.56672,-9.5e-4 -1.24382,0.004 -2.487613,0.0124 -3.731443,0.005 -1.114863,0.003 -2.231503,0.01 -3.342233,0.11756 -2.518878,0.27924 -6.473631,1.0707 4.959776,-0.95738 0.27501,-0.0488 -0.550464,0.0961 -0.823062,0.15692 -0.608555,0.13574 -1.079519,0.28565 -1.678928,0.46214 -3.154323,1.06905 -6.275112,1.3919 -9.672035,2.00579 -0.544111,0.0983 -1.048771,0.13128 -1.599026,0.0595 -0.22098,-0.0288 -0.4336,-0.10316 -0.6504,-0.15475 -1.474832,-0.55476 -2.192952,-1.43469 -2.919216,-2.81528 -0.689424,-1.11353 -1.314501,-2.21295 -1.50111,-3.5301 -0.222661,-0.98524 -0.310328,-2.00364 -0.711675,-2.94471 -0.330754,-1.0269 -0.461784,-2.08606 -0.699323,-3.13494 -0.330294,-1.14241 -0.732113,-2.26898 -0.872298,-3.45723 -0.192961,-1.01792 -0.358981,-2.03226 -0.487207,-3.06007 -0.316157,-1.46469 -0.741569,-2.90451 -1.05721,-4.3694 -0.3871,-1.43311 -0.724448,-2.88133 -1.053312,-4.32851 -0.444099,-1.81583 -0.923107,-3.62466 -1.437533,-5.4216 -0.695825,-2.28228 -1.309515,-4.58901 -2.080764,-6.84774 -0.319132,-1.34112 -0.770386,-2.64821 -1.146271,-3.97429 -0.670054,-2.40898 -1.614951,-4.72365 -2.407088,-7.09339 -0.711413,-2.05535 -1.484602,-4.10085 -1.947745,-6.23048 -0.63106,-2.80693 -0.93276,-5.67041 -1.397058,-8.50723 -0.551905,-4.14396 -1.081328,-8.29106 -1.714796,-12.42334 -0.328109,-2.56228 -0.65233,-5.13688 -1.374319,-7.62471 -0.361022,-1.3887 -0.86582,-3.63469 -1.719297,-4.80662 -0.05459,-0.075 -0.156952,-0.0988 -0.235428,-0.1482 15.57257,-3.34925 7.395451,-3.47245 6.766824,-0.94642 -0.13914,0.55911 -0.17051,1.14794 -0.340848,1.70136 -0.381323,1.83537 -0.530951,3.71916 -0.887795,5.56057 -0.41999,3.27327 -1.024826,6.51801 -1.584091,9.76961 -0.850438,5.06396 -1.980114,10.07396 -2.854684,15.13312 -1.146833,6.63746 -2.134298,13.30243 -3.165562,19.95862 -0.823682,6.83839 -1.617655,13.6795 -2.587247,20.49912 -0.718463,4.55079 -1.597682,9.06943 -2.568647,13.57316 -0.515706,2.3996 -1.23082,4.83606 -0.931469,7.31064 0,0 -7.395863,1.17139 -7.395863,1.17139 z"
       inkscape:connector-curvature="0" />
    <path
       inkscape:connector-curvature="0"
       d="m 113.61862,1014.1705 c 0.0156,-1.5018 0.42989,-2.949 0.77208,-4.4009 0.57781,-2.6477 1.21229,-5.2814 1.72448,-7.9431 0.68128,-3.96979 1.09498,-7.97579 1.59123,-11.97039 0.59043,-3.8933 1.15571,-7.79136 1.80602,-11.67521 0.48209,-2.93873 1.02552,-5.8659 1.46962,-8.8111 0.28108,-1.89029 0.60576,-3.77383 0.80742,-5.67479 0.17576,-1.08039 0.23527,-2.17721 0.39971,-3.25832 0.50237,-2.70524 -0.089,-1.39525 4.72464,-2.26899 0.49438,1.07224 0.78805,2.21961 1.08309,3.35847 0.43038,1.47377 0.60149,2.99692 0.77996,4.51606 0.22568,2.43324 0.50468,4.85683 0.88497,7.27075 0.3029,1.63791 0.56095,3.28859 0.99345,4.89881 0.30467,1.22134 0.69426,2.41947 1.07941,3.61721 0.42455,1.40531 1.01668,2.75061 1.47072,4.14551 0.26774,0.773 0.54994,1.5436 0.7198,2.3448 0.36811,1.3294 0.69053,2.6717 1.09509,3.9912 0.32256,1.0533 0.66317,2.1022 0.96097,3.1628 0.21282,0.8399 0.35286,1.6954 0.58634,2.5301 0.15057,0.8733 0.45685,1.7049 0.66375,2.56389 0.093,0.6029 0.18608,1.202 0.30036,1.8016 0.0552,0.6851 0.2979,1.3282 0.49112,1.9811 0.15193,0.6052 0.21431,1.2235 0.41271,1.8171 0.24784,0.5567 0.27663,1.1713 0.43474,1.75 0.0899,0.7243 0.41451,1.3309 0.79254,1.9427 0.40904,0.7828 0.79582,1.1546 1.65627,1.3338 -0.44971,0.3097 1.82291,-0.2167 1.2312,-0.119 -6.53621,1.0791 -4.19343,0.7949 -2.68228,0.3497 2.24552,-0.6942 4.58208,-1.1155 6.92455,-1.3045 0.66348,-0.044 1.32874,-0.04 1.99328,-0.039 0.71069,6e-4 1.42133,0.01 2.132,0.014 0.69327,0.01 1.38654,0.01 2.07981,0 0,0 -4.07394,1.3235 -4.07394,1.3235 l 0,0 c -0.69477,0 -1.38953,-0.01 -2.0843,-5e-4 -0.72686,0 -1.45371,0.01 -2.18057,0 -0.6515,0 -1.30404,0.01 -1.95312,0.069 -1.47197,0.1632 -3.78303,0.6257 2.89837,-0.5595 0.16071,-0.029 -0.32168,0.056 -0.48097,0.092 -0.35563,0.079 -0.63085,0.1669 -0.98113,0.2701 -1.84331,0.6247 -3.66702,0.8134 -5.6521,1.1721 -0.31796,0.057 -0.61288,0.077 -0.93443,0.035 -0.12913,-0.017 -0.25338,-0.06 -0.38008,-0.09 -0.86186,-0.3242 -1.28151,-0.8384 -1.70592,-1.6452 -0.40288,-0.6508 -0.76816,-1.2932 -0.87721,-2.0629 -0.13012,-0.5758 -0.18135,-1.1709 -0.41588,-1.7208 -0.19329,-0.6001 -0.26986,-1.2191 -0.40867,-1.832 -0.19302,-0.6676 -0.42783,-1.326 -0.50975,-2.0204 -0.11276,-0.5948 -0.20978,-1.1876 -0.28471,-1.7882 -0.18476,-0.8559 -0.43336,-1.69729 -0.61781,-2.55339 -0.22621,-0.8374 -0.42335,-1.6837 -0.61553,-2.5294 -0.25952,-1.0612 -0.53944,-2.1182 -0.84006,-3.1683 -0.40662,-1.3337 -0.76525,-2.6817 -1.21595,-4.0016 -0.18649,-0.7837 -0.45019,-1.5476 -0.66985,-2.3225 -0.39156,-1.4078 -0.94374,-2.7604 -1.40664,-4.14521 -0.41573,-1.2011 -0.86757,-2.39644 -1.13822,-3.64094 -0.36878,-1.6403 -0.54508,-3.31365 -0.8164,-4.97142 -0.32252,-2.42162 -0.6319,-4.84509 -1.00209,-7.25989 -0.19174,-1.49734 -0.3812,-3.00187 -0.80312,-4.4557 -0.21097,-0.81152 -0.50596,-2.12402 -1.00471,-2.80887 -0.0319,-0.0438 -0.0917,-0.0577 -0.13758,-0.0866 9.10023,-1.95722 4.32172,-2.02922 3.95437,-0.55307 -0.0813,0.32673 -0.0996,0.67083 -0.19919,0.99424 -0.22283,1.07254 -0.31027,2.17338 -0.5188,3.24946 -0.24543,1.91282 -0.59889,3.80896 -0.9257,5.70912 -0.49698,2.95925 -1.15714,5.88698 -1.66822,8.84342 -0.67018,3.87877 -1.24723,7.77366 -1.84987,11.66336 -0.48134,3.9962 -0.94532,7.9939 -1.51193,11.97919 -0.41985,2.6593 -0.93364,5.2999 -1.50105,7.9318 -0.30137,1.4023 -0.71926,2.826 -0.54433,4.2721 0,0 -4.32196,0.6846 -4.32196,0.6846 z"
       id="path3788"
       style="fill:#000000;fill-opacity:1;stroke:#000000;stroke-width:1.168751;stroke-miterlimit:4;stroke-opacity:1;stroke-dasharray:none" />
    <path
       style="fill:#000000;fill-opacity:1;stroke:#000000;stroke-width:2;stroke-miterlimit:4;stroke-opacity:1;stroke-dasharray:none"
       id="path3792"
       d="m 133.01281,82.464044 c -1.13865,-0.02016 -2.27762,-0.01428 -3.4164,-0.01284 -1.07663,0.0018 -2.15326,0.0028 -3.22989,0.0033 -1.35558,0.08488 -1.87248,-0.165902 -1.99147,-1.575678 0.14289,-1.000509 0.44583,-1.964636 0.59844,-2.965789 0.13038,-0.996157 0.14344,-2.002144 0.15431,-3.005171 0.14286,-0.97348 -0.19277,-1.600991 -0.72304,-2.36202 -0.64734,-0.546899 -1.28357,-1.119313 -1.97256,-1.616208 -0.61947,-0.558872 -1.17619,-1.161487 -1.98406,-1.424998 -0.11424,-0.02295 -0.69065,-0.148837 -0.80129,-0.128706 -0.13304,0.02421 -0.49091,0.212886 -0.3573,0.192083 2.31699,-0.360765 4.6107,-0.862726 6.92895,-1.215316 0.12875,-0.01958 -0.22864,0.127905 -0.32855,0.211437 -0.1052,0.08795 -0.18819,0.199476 -0.28228,0.299214 -0.56101,0.967824 -0.7591,2.103096 -1.06419,3.170329 -0.2937,1.039998 -0.56342,2.086854 -0.8314,3.134065 -0.20784,1.100494 -0.37022,2.208768 -0.56191,3.313016 -0.27901,1.041815 -0.47397,2.10599 -0.80452,3.133123 -0.1758,0.669379 -0.46287,1.292087 -0.83695,1.871444 0,0 -7.431,0.746583 -7.431,0.746583 l 0,0 c 0.344,-0.541861 0.75535,-1.042111 0.88223,-1.693938 0.35211,-0.991863 0.57055,-2.011328 0.8581,-3.025078 0.19563,-1.121383 0.36151,-2.240287 0.53654,-3.36359 0.25883,-1.063186 0.56094,-2.114938 0.84305,-3.171719 0.36012,-1.131247 0.5872,-2.304715 0.99998,-3.419949 1.7564,-2.92898 6.38883,-3.20277 9.43591,-2.05277 0.74966,0.430341 1.3414,1.052111 2.00906,1.595286 0.70834,0.580016 1.48452,1.107169 2.04184,1.842604 0.5777,0.87142 0.90085,1.746213 0.78132,2.810438 -0.01,1.035337 -0.0218,2.073055 -0.14148,3.102787 -0.128,0.947017 -0.33262,1.875046 -0.58558,2.796455 0.006,0.07799 -0.0128,0.341171 0.0915,0.42346 0.38569,0.304393 1.1663,-0.04072 1.59933,0.08372 1.06982,5.42e-4 2.13963,0.0016 3.20945,0.0033 1.16514,0.0015 2.33043,0.0067 3.49545,-0.01284 0,0 -7.12156,2.313936 -7.12156,2.313936 z"
       inkscape:connector-curvature="0"
       transform="translate(0,852.36218)" />
  </g>
</svg>
