<?xml version="1.0" encoding="UTF-8" standalone="no"?>
<svg
   xmlns:dc="http://purl.org/dc/elements/1.1/"
   xmlns:cc="http://creativecommons.org/ns#"
   xmlns:rdf="http://www.w3.org/1999/02/22-rdf-syntax-ns#"
   xmlns:svg="http://www.w3.org/2000/svg"
   xmlns="http://www.w3.org/2000/svg"
   xmlns:sodipodi="http://sodipodi.sourceforge.net/DTD/sodipodi-0.dtd"
   xmlns:inkscape="http://www.inkscape.org/namespaces/inkscape"
   width="210.00000px"
   height="130.00000px"
   version="1.1"
   id="svg1324"
   sodipodi:version="0.32"
   inkscape:version="0.48.4 r9939"
   sodipodi:docname="dk_shield.svg">
  <metadata
     id="metadata1335">
    <rdf:RDF>
      <cc:Work
         rdf:about="">
        <dc:format>image/svg+xml</dc:format>
        <dc:type
           rdf:resource="http://purl.org/dc/dcmitype/StillImage" />
        <dc:title></dc:title>
      </cc:Work>
    </rdf:RDF>
  </metadata>
  <defs
     id="defs1333" />
  <sodipodi:namedview
     inkscape:window-height="751"
     inkscape:window-width="1280"
     inkscape:pageshadow="2"
     inkscape:pageopacity="0.0"
     borderopacity="1.0"
     bordercolor="#666666"
     pagecolor="#ffffff"
     id="base"
     showguides="true"
     inkscape:guide-bbox="true"
     inkscape:zoom="2.7401541"
     inkscape:cx="91.987692"
     inkscape:cy="53.757718"
     inkscape:window-x="0"
     inkscape:window-y="25"
     inkscape:current-layer="svg1324"
     showgrid="false"
     inkscape:window-maximized="1" />
  <rect
     x="0"
     y="0"
     width="209.99997"
     height="129.99998"
     id="rect1326"
     style="fill:#3771c8;fill-opacity:1;stroke:none;stroke-width:0.26707691000000000"
     ry="20"
     inkscape:export-filename="/home/osm/Dropbox/gis-support/trunk_label.png"
     inkscape:export-xdpi="13.714288"
     inkscape:export-ydpi="13.714288" />
  <rect
     x="3"
     y="3"
     width="204"
     height="124"
     rx="17"
     ry="17"
     id="rect2061"
     style="fill:#ffffff;fill-opacity:1;stroke:none;stroke-width:0.25709069"
     inkscape:export-filename="/home/osm/Dropbox/gis-support/trunk_label.png"
     inkscape:export-xdpi="13.714288"
     inkscape:export-ydpi="13.714288" />
  <rect
     id="rect1339"
     ry="10"
     rx="10"
     height="110"
     width="190"
     y="10"
     x="10"
     style="fill:#2c5aa0;fill-opacity:1;stroke:none;stroke-width:0.23368420000000001"
     inkscape:export-filename="/home/osm/Dropbox/gis-support/trunk_label.png"
     inkscape:export-xdpi="13.714288"
     inkscape:export-ydpi="13.714288" />
  <g
     id="g4299"
     transform="matrix(0.80679199,0,0,0.80679199,-35.228679,27.404781)"
     inkscape:export-filename="/home/osm/Dropbox/gis-support/trunk_label.png"
     inkscape:export-xdpi="13.714288"
     inkscape:export-ydpi="13.714288">
    <g
       style="fill:#ff0000"
       transform="matrix(0.2680744,0,0,0.2680744,55.660926,-21.857334)"
       id="g3793">
      <rect
         width="406"
         height="512"
         rx="38"
         ry="38"
         x="0"
         y="0"
         id="rect1363"
         style="fill:#ff0000;fill-opacity:1" />
      <rect
         width="394"
         height="500"
         rx="32"
         ry="32"
         x="6"
         y="6"
         id="rect1365"
         style="fill:#ff0000;fill-opacity:1;stroke:#ffffff;stroke-width:5;stroke-miterlimit:4;stroke-opacity:1;stroke-dasharray:none" />
    </g>
    <path
       style="fill:#ffffff;fill-opacity:1;fill-rule:evenodd;stroke:none"
       id="path2554"
       d="m 131.04219,64.981178 0,8.405293 8.98378,0 0,-8.405293 2.99459,0 0,-25.215874 -2.99459,-2.801764 -4.79135,-16.810584 -50.309173,0 -4.79135,16.810584 -2.994593,2.801764 0,25.215874 2.994593,0 0,8.405293 8.983782,0 0,-8.405293 41.924311,0 z"
       inkscape:connector-curvature="0" />
    <path
       style="fill:#ff0000;fill-opacity:1;fill-rule:evenodd;stroke:none"
       id="path2556"
       d="m 135.23462,34.161777 -2.39568,-11.207057 -45.517819,0 -2.395674,11.207057 50.309173,0 z"
       inkscape:connector-curvature="0" />
    <path
       style="fill:#ff0000;fill-opacity:1;fill-rule:nonzero;stroke:none"
       id="path2558"
       d="m 131.04218,49.064696 a 4.4918903,4.2026468 0 1 1 8.98378,0 4.4918903,4.2026468 0 1 1 -8.98378,0 z"
       inkscape:connector-curvature="0" />
    <path
       style="fill:#ff0000;fill-opacity:1;fill-rule:nonzero;stroke:none"
       id="path2560"
       d="m 80.134093,49.064706 a 4.4918905,4.202647 0 1 1 8.983781,0 4.4918905,4.202647 0 1 1 -8.983781,0 z"
       inkscape:connector-curvature="0" />
    <rect
       style="fill:#ff0000;fill-opacity:1;fill-rule:nonzero;stroke:none"
       id="rect2562"
       transform="scale(-1,-1)"
       y="-60.479321"
       x="-140.02597"
       height="2.801764"
       width="59.891869" />
  </g>
</svg>
