<?xml version="1.0" encoding="UTF-8" standalone="no"?>
<!-- Created with Inkscape (http://www.inkscape.org/) -->

<svg
   width="6mm"
   height="6mm"
   viewBox="0 0 6 6"
   version="1.1"
   id="svg1073"
   inkscape:version="1.2.2 (b0a8486541, 2022-12-01)"
   sodipodi:docname="chron_roslny.svg"
   xmlns:inkscape="http://www.inkscape.org/namespaces/inkscape"
   xmlns:sodipodi="http://sodipodi.sourceforge.net/DTD/sodipodi-0.dtd"
   xmlns="http://www.w3.org/2000/svg"
   xmlns:svg="http://www.w3.org/2000/svg">
  <sodipodi:namedview
     id="namedview1075"
     pagecolor="#ffffff"
     bordercolor="#000000"
     borderopacity="0.25"
     inkscape:showpageshadow="2"
     inkscape:pageopacity="0.0"
     inkscape:pagecheckerboard="0"
     inkscape:deskcolor="#d1d1d1"
     inkscape:document-units="mm"
     showgrid="false"
     inkscape:zoom="16.220283"
     inkscape:cx="12.391893"
     inkscape:cy="10.264926"
     inkscape:window-width="1920"
     inkscape:window-height="1032"
     inkscape:window-x="0"
     inkscape:window-y="25"
     inkscape:window-maximized="1"
     inkscape:current-layer="layer1" />
  <defs
     id="defs1070" />
  <g
     inkscape:label="Warstwa 1"
     inkscape:groupmode="layer"
     id="layer1">
    <path
       d="M 0.61739303,5.4461688 5.4351626,5.4789772"
       style="fill:#f90000;fill-opacity:1;fill-rule:nonzero;stroke:none;stroke-width:0.0846667"
       id="path2265" />
    <path
       d="m 0.6173895,5.4461688 4.8177696,0.032808"
       style="fill:none;stroke:#fa0000;stroke-width:0.183641;stroke-linecap:butt;stroke-linejoin:miter;stroke-miterlimit:4;stroke-dasharray:none;stroke-opacity:1"
       id="path2269" />
    <path
       d="M 1.7280221,4.3332255 1.9438233,3.8659008 3.0536516,5.3680638 2.8070246,4.3666336 2.7453661,3.6655936 2.8070246,3.0313344 2.7761919,2.3971106 2.7145334,1.6626978 2.7453661,0.99506591"
       style="fill:none;stroke:#ff0000;stroke-width:0.0635145;stroke-linecap:butt;stroke-linejoin:miter;stroke-miterlimit:4;stroke-dasharray:none;stroke-opacity:1"
       id="path2275" />
    <path
       d="m 3.6248446,2.6634578 -0.087595,0.58928 -0.058399,0.4910666 -0.14599,0.5565422 -0.1167942,0.6220178 -0.2043923,0.3601155"
       style="fill:none;stroke:#ff0000;stroke-width:0.0612136;stroke-linecap:butt;stroke-linejoin:miter;stroke-miterlimit:4;stroke-dasharray:none;stroke-opacity:1"
       id="path2281" />
    <path
       d="M 2.6612957,0.4045512 2.8948839,0.53550231 2.9824789,0.89561786 2.9532689,1.3539467 2.8364783,1.6485867 2.60289,1.681395 2.3693052,1.3212795 l 0.02921,-0.36011556 0.02921,-0.36011555 z"
       style="fill:#f90000;fill-opacity:1;fill-rule:nonzero;stroke:none;stroke-width:0.0846667"
       id="path2285" />
    <path
       d="m 2.6612921,0.40458648 0.2335883,0.13091583 0.087595,0.36011555 -0.02921,0.45832884 -0.1167941,0.29464 -0.2335918,0.032808 -0.2335883,-0.3601155 0.02921,-0.36011556 0.02921,-0.36011555 z"
       style="fill:none;stroke:#ff0000;stroke-width:0.0612136;stroke-linecap:butt;stroke-linejoin:miter;stroke-miterlimit:4;stroke-dasharray:none;stroke-opacity:1"
       id="path2289" />
    <path
       d="M 3.7708453,1.6813245 3.9752306,1.8777512 3.8876323,2.33608 3.8292406,2.6961956 3.6540476,2.8926222 3.4788546,2.6961956 3.3912599,2.4670311 V 2.1396534 L 3.4496623,1.8777512 3.6248552,1.6485867 Z"
       style="fill:#f90000;fill-opacity:1;fill-rule:nonzero;stroke:none;stroke-width:0.0846667"
       id="path2293" />
    <path
       d="M 3.7708382,1.6813245 3.9752271,1.8777512 3.8876323,2.33608 3.829237,2.6961956 3.6540441,2.8926222 3.4788511,2.6961956 3.3912564,2.4670311 V 2.1396534 L 3.4496552,1.8777512 3.6248446,1.6485867 Z"
       style="fill:none;stroke:#ff0000;stroke-width:0.0612136;stroke-linecap:butt;stroke-linejoin:miter;stroke-miterlimit:4;stroke-dasharray:none;stroke-opacity:1"
       id="path2297" />
    <path
       d="M 4.0920282,3.4819022 4.1504236,3.22 4.2380183,3.0890489 h 0.1460006 l 0.058392,0.3601155 0.02921,0.29464 -0.1460007,0.1964267 H 4.1212347 L 4.03364,3.7438044 Z"
       style="fill:#ff0000;fill-opacity:1;fill-rule:nonzero;stroke:none;stroke-width:0.0846667"
       id="path2301" />
    <path
       d="M 4.0920247,3.4819022 4.1504197,3.22 4.2380147,3.0890489 h 0.1459936 l 0.058399,0.3601155 0.02921,0.29464 -0.14599,0.1964267 H 4.1212347 L 4.03364,3.7438044 Z"
       style="fill:none;stroke:#ff0000;stroke-width:0.0612136;stroke-linecap:butt;stroke-linejoin:miter;stroke-miterlimit:4;stroke-dasharray:none;stroke-opacity:1"
       id="path2305" />
    <path
       d="M 4.1543641,3.767758 3.7001415,4.4390941 3.2872081,4.9715063 3.0188042,5.3187455"
       style="fill:none;stroke:#ff0000;stroke-width:0.0612136;stroke-linecap:butt;stroke-linejoin:miter;stroke-miterlimit:4;stroke-dasharray:none;stroke-opacity:1"
       id="path2311" />
  </g>
</svg>
