<?xml version="1.0" encoding="UTF-8" standalone="no"?>
<!-- Created with Inkscape (http://www.inkscape.org/) -->

<svg
   width="6mm"
   height="6mm"
   viewBox="0 0 6 6"
   version="1.1"
   id="svg973"
   inkscape:version="1.2.2 (b0a8486541, 2022-12-01)"
   sodipodi:docname="chron_zwierz.svg"
   xmlns:inkscape="http://www.inkscape.org/namespaces/inkscape"
   xmlns:sodipodi="http://sodipodi.sourceforge.net/DTD/sodipodi-0.dtd"
   xmlns="http://www.w3.org/2000/svg"
   xmlns:svg="http://www.w3.org/2000/svg">
  <sodipodi:namedview
     id="namedview975"
     pagecolor="#ffffff"
     bordercolor="#000000"
     borderopacity="0.25"
     inkscape:showpageshadow="2"
     inkscape:pageopacity="0.0"
     inkscape:pagecheckerboard="0"
     inkscape:deskcolor="#d1d1d1"
     inkscape:document-units="mm"
     showgrid="false"
     inkscape:zoom="14.029915"
     inkscape:cx="42.266829"
     inkscape:cy="28.047213"
     inkscape:window-width="1920"
     inkscape:window-height="1032"
     inkscape:window-x="0"
     inkscape:window-y="25"
     inkscape:window-maximized="1"
     inkscape:current-layer="layer1" />
  <defs
     id="defs970" />
  <g
     inkscape:label="Warstwa 1"
     inkscape:groupmode="layer"
     id="layer1">
    <path
       inkscape:connector-curvature="0"
       id="path3029"
       d="M 2.6718797,5.7160275 C 2.1378109,5.662338 1.6833939,5.4910427 1.2889206,5.1947128 1.1586139,5.096826 0.93670154,4.8811967 0.82936924,4.7481728 0.50836794,4.3503354 0.32151224,3.8820292 0.26309094,3.3289401 0.24045574,3.1146472 0.24770924,2.7075031 0.27760444,2.5142903 0.32005494,2.2399323 0.38527724,2.00613 0.47939724,1.7909241 0.67552954,1.3424667 1.0053486,0.95319508 1.4263242,0.67330628 1.7670674,0.44676045 2.1536482,0.30886915 2.6052731,0.25278135 c 0.1419994,-0.017635 0.6359193,-0.017626 0.7787847,1.45e-5 0.648232,0.08004 1.1921027,0.34411973 1.6167818,0.78503665 0.3937148,0.4087686 0.6202281,0.8812016 0.7103608,1.4815814 0.020585,0.137121 0.023895,0.1987497 0.024214,0.4508754 3.901e-4,0.309128 -0.00783,0.4100176 -0.052013,0.6382807 C 5.5849407,4.117257 5.3585605,4.5548141 5.0053748,4.9190873 4.7828851,5.1485615 4.5592851,5.3131212 4.2909322,5.4448852 4.1017263,5.5377874 3.9566762,5.5909635 3.7632031,5.6383536 3.5054579,5.7014866 3.3641336,5.7179355 3.0459014,5.7218407 2.8909129,5.7237427 2.7226032,5.7211267 2.6718797,5.7160275 Z M 3.2933094,5.572813 C 3.6587877,5.5366364 3.9339184,5.4615662 4.2294492,5.3173844 4.9009954,4.9897549 5.3756602,4.3746444 5.5345638,3.626108 5.5820776,3.402288 5.591531,3.2962579 5.5916652,2.98566 5.5918428,2.5757557 5.561722,2.3720108 5.4517673,2.0393388 5.2191815,1.3356421 4.6395598,0.75602038 3.9358631,0.52343455 3.6418547,0.42625895 3.4256951,0.39021015 3.0817664,0.38099735 2.5663392,0.36719065 2.1600699,0.44772065 1.7598817,0.64301918 1.1325335,0.94917538 0.65888964,1.5302575 0.48368534,2.2086999 0.41232704,2.4850202 0.38675864,2.7333845 0.39487154,3.071414 c 0.010047,0.4186312 0.075783,0.7333969 0.2232559,1.0690259 0.2007727,0.4569331 0.57940266,0.8697648 1.03084166,1.1239582 0.2951628,0.1661983 0.6943684,0.2826161 1.0690229,0.3117523 0.1087296,0.00846 0.477805,0.00631 0.5753174,-0.00334 z"
       style="fill:#ff0000;stroke-width:0.00944458" />
    <path
       inkscape:connector-curvature="0"
       id="path3031"
       d="m 2.6650668,4.6945621 c -0.033351,-0.00765 -0.030314,-0.035916 0.010109,-0.094076 0.079237,-0.1140047 0.155553,-0.255886 0.1884091,-0.3502752 0.032285,-0.092748 0.03355,-0.102349 0.03364,-0.2552049 C 2.8972721,3.907649 2.8931749,3.8025083 2.8881149,3.76136 2.8799349,3.694901 2.8758289,3.684952 2.8513299,3.672283 2.769062,3.6297423 2.4797523,3.625384 2.3490939,3.6647171 2.1569194,3.7225691 2.0153211,3.8042764 1.7373371,4.0177228 1.4051104,4.2728187 1.1733412,4.4356296 1.1424215,4.4356329 1.1268738,4.4356346 1.24129,4.2040638 1.3608656,3.9935164 1.5936111,3.5837009 1.6717435,3.3820568 1.7295483,3.0420194 c 0.03562,-0.209536 0.069316,-0.2679944 0.1836053,-0.3185328 0.087062,-0.038499 0.1712824,-0.042267 0.400238,-0.017906 0.2293274,0.0244 0.2904286,0.021161 0.3290332,-0.017443 0.041056,-0.041056 0.033183,-0.084663 -0.042488,-0.2353298 -0.06128,-0.1220132 -0.067829,-0.1413979 -0.0779,-0.2305613 -0.011995,-0.1062054 -0.0088,-0.1578366 0.023155,-0.3740216 0.011663,-0.078903 0.020617,-0.1675213 0.019898,-0.1969292 -0.00174,-0.071227 -0.042145,-0.2274454 -0.080981,-0.3130951 -0.028437,-0.062716 -0.03595,-0.071144 -0.080626,-0.090442 -0.050245,-0.021704 -0.2897437,-0.08464 -0.3706648,-0.097405 -0.076333,-0.01204 -0.026487,-0.02324 0.1886852,-0.042395 l 0.2024665,-0.018024 0.067231,-0.074814 c 0.094179,-0.10480282 0.1192812,-0.11860952 0.2045186,-0.11249072 0.111397,0.008 0.1758014,0.050867 0.2172764,0.14462802 0.029312,0.066265 0.028955,0.1066109 -0.00449,0.5085172 -0.048712,0.5852683 -0.028247,0.7992182 0.089872,0.9395948 0.036728,0.043648 0.1143724,0.082293 0.1927754,0.095946 0.083769,0.014588 0.1716535,0.00288 0.309297,-0.041214 0.078516,-0.025151 0.097743,-0.035474 0.1094734,-0.058778 0.00783,-0.015548 0.065009,-0.1135761 0.1270743,-0.217841 0.1181288,-0.1984493 0.2171678,-0.3381892 0.2639165,-0.3723758 0.026465,-0.019353 0.029534,-0.01949 0.072163,-0.00321 0.077623,0.029644 0.206629,0.1449478 0.4297874,0.384136 0.232198,0.248877 0.2342956,0.2505721 0.474632,0.3835628 0.2254891,0.124775 0.4252575,0.2797729 0.4252575,0.3299522 0,0.028773 -0.048817,0.036225 -0.2373041,0.036225 -0.213994,0 -0.2849061,-0.011613 -0.564745,-0.092486 -0.097106,-0.028063 -0.2196717,-0.056616 -0.2723694,-0.06345 L 4.2325174,2.8634114 4.202382,2.8989177 C 4.0158125,3.118739 3.9315909,3.2353959 3.8772131,3.3493154 3.844462,3.4179279 3.8402517,3.4363666 3.8374363,3.5235173 l -0.00315,0.097467 0.2218375,0.1690783 C 4.1781345,3.8830556 4.281596,3.961449 4.2860385,3.96427 c 0.00444,0.00282 -0.00343,0.053641 -0.017491,0.1129333 l -0.025567,0.1078041 -0.063125,0.018267 c -0.034719,0.010047 -0.1013085,0.032519 -0.1479768,0.049938 l -0.084852,0.031671 -0.043238,0.083061 -0.043238,0.083061 -0.054223,-0.00227 C 3.7412964,4.4460114 3.6683953,4.4158684 3.6466771,4.3827222 3.6378279,4.3692165 3.62063,4.2876275 3.6075294,4.1969999 L 3.5841641,4.035365 3.4793889,3.9489078 c -0.057626,-0.047551 -0.1072311,-0.082483 -0.1102327,-0.077627 -0.003,0.00486 -0.014731,0.086558 -0.026065,0.1815583 -0.038205,0.3202283 -0.057324,0.3891335 -0.1429605,0.5152393 -0.04268,0.062849 -0.058027,0.072378 -0.08045,0.049955 -0.019325,-0.019325 -0.015761,-0.033173 0.042601,-0.1655117 0.074308,-0.1685001 0.074894,-0.1707589 0.098689,-0.3806625 0.0115,-0.1014469 0.023477,-0.2012796 0.026614,-0.2218505 l 0.0057,-0.037401 -0.080616,-0.031089 c -0.1104981,-0.042614 -0.2365045,-0.078842 -0.2449264,-0.07042 -0.00383,0.00383 -0.00164,0.045066 0.00487,0.091637 0.029695,0.2125081 0.012654,0.3372885 -0.075433,0.5523593 C 2.7961044,4.6018779 2.7235532,4.7079845 2.6650668,4.6945621 Z"
       style="fill:#ff0000;stroke-width:0.00944458" />
  </g>
</svg>
