<?xml version="1.0" encoding="UTF-8" standalone="no"?>
<!-- Created with Inkscape (http://www.inkscape.org/) -->

<svg
   width="20mm"
   height="20mm"
   viewBox="0 0 20 20"
   version="1.1"
   id="svg5"
   inkscape:version="1.2.2 (b0a8486541, 2022-12-01)"
   sodipodi:docname="mogily.svg"
   xmlns:inkscape="http://www.inkscape.org/namespaces/inkscape"
   xmlns:sodipodi="http://sodipodi.sourceforge.net/DTD/sodipodi-0.dtd"
   xmlns="http://www.w3.org/2000/svg"
   xmlns:svg="http://www.w3.org/2000/svg">
  <sodipodi:namedview
     id="namedview7"
     pagecolor="#ffffff"
     bordercolor="#000000"
     borderopacity="0.25"
     inkscape:showpageshadow="2"
     inkscape:pageopacity="0.0"
     inkscape:pagecheckerboard="0"
     inkscape:deskcolor="#d1d1d1"
     inkscape:document-units="mm"
     showgrid="false"
     showguides="true"
     inkscape:zoom="6.1082828"
     inkscape:cx="22.101138"
     inkscape:cy="32.987995"
     inkscape:window-width="1920"
     inkscape:window-height="1032"
     inkscape:window-x="0"
     inkscape:window-y="25"
     inkscape:window-maximized="1"
     inkscape:current-layer="layer1" />
  <defs
     id="defs2" />
  <g
     inkscape:label="Warstwa 1"
     inkscape:groupmode="layer"
     id="layer1">
    <path
       style="opacity:0.64;fill:#d40000;stroke-width:0.238654"
       d="m 4.6826361,10.39792 -0.081881,6.063842 1.2860148,0.01576 0.01697,-6.000069 L 7.6378541,10.43387 7.6280196,9.3656644 5.9844814,9.3277292 5.9599704,7.8348559 4.3595381,7.6747507 4.2906342,9.1176045 2.1789242,9.3267878 2.7019243,10.373432 Z"
       id="path301"
       sodipodi:nodetypes="ccccccccccccc" />
    <path
       style="opacity:0.64;fill:#d40000;stroke-width:0.238654"
       d="m 9.8523799,5.3415966 -0.081881,6.0638424 1.2860151,0.01576 0.01697,-6.0000694 1.734114,-0.043583 L 12.797763,4.309341 11.154225,4.2714058 11.129714,2.7785325 9.5292819,2.6184273 9.460378,4.0612811 7.348668,4.2704644 7.8716681,5.3171086 Z"
       id="path412"
       sodipodi:nodetypes="ccccccccccccc" />
    <path
       style="opacity:0.64;fill:#d40000;stroke-width:0.238654"
       d="m 15.176358,11.095132 -0.08188,6.063842 1.286016,0.01576 0.01697,-6.000069 1.734114,-0.04358 -0.0098,-1.068206 -1.643538,-0.03793 -0.02451,-1.4928731 -1.600433,-0.1601052 -0.0689,1.4428538 -2.11171,0.2091835 0.523,1.046644 z"
       id="path414"
       sodipodi:nodetypes="ccccccccccccc" />
  </g>
</svg>
